<?xml version="1.0" standalone="no"?>
<!DOCTYPE svg PUBLIC "-//W3C//DTD SVG 20010904//EN"
 "http://www.w3.org/TR/2001/REC-SVG-20010904/DTD/svg10.dtd">
<svg version="1.0" xmlns="http://www.w3.org/2000/svg"
 width="1024.000000pt" height="1024.000000pt" viewBox="0 0 1024.000000 1024.000000"
 preserveAspectRatio="xMidYMid meet">
<metadata>
Created by potrace 1.16, written by Peter Selinger 2001-2019
</metadata>
<g transform="translate(0.000000,1024.000000) scale(0.100000,-0.100000)"
fill="#000000" stroke="none">
<path d="M0 5120 l0 -5120 5120 0 5120 0 0 5120 0 5120 -5120 0 -5120 0 0
-5120z m5930 1890 c80 -16 110 -30 110 -50 0 -10 -131 -146 -299 -311 -206
-202 -302 -303 -307 -323 -5 -20 10 -92 50 -248 65 -254 77 -284 108 -298 13
-5 125 -30 249 -55 179 -37 231 -44 252 -36 15 6 165 147 333 313 168 167 312
304 320 306 20 5 41 -49 59 -154 77 -443 -159 -902 -568 -1104 -56 -28 -138
-60 -182 -71 -118 -30 -309 -36 -467 -14 -76 10 -132 14 -141 9 -9 -5 -276
-268 -594 -584 -619 -617 -622 -619 -758 -655 -398 -103 -752 303 -585 671 16
36 44 84 61 107 18 23 283 294 590 602 384 386 560 569 565 588 4 17 0 61 -10
105 -75 335 24 670 271 918 161 161 364 261 596 294 76 11 272 5 347 -10z"/>
<path d="M3913 4399 c-57 -10 -94 -31 -131 -73 -88 -101 -55 -254 68 -319 48
-25 63 -28 118 -24 110 8 191 86 200 190 11 138 -116 250 -255 226z"/>
</g>
</svg>
